<svg width="24" height="24" viewBox="0 0 24 24" fill="none" xmlns="http://www.w3.org/2000/svg">
<rect opacity="0.01" width="24" height="24" fill="black"/>
<path fill-rule="evenodd" clip-rule="evenodd" d="M6.37739 3.69213C10.3566 1.00346 15.6852 1.52314 19.07 4.93L19.12 4.95C22.5269 8.33476 23.0465 13.6634 20.3579 17.6426C17.6692 21.6218 12.5315 23.1279 8.12 21.23C7.91812 21.1449 7.69753 21.1138 7.48 21.14L3.2 22H3C2.7273 22.0069 2.46359 21.9022 2.27 21.71C2.0326 21.4714 1.93113 21.1294 2 20.8L2.88 16.57C2.91735 16.3525 2.88589 16.1288 2.79 15.93C0.892092 11.5185 2.39815 6.3808 6.37739 3.69213ZM7 12C7 12.5523 7.44772 13 8 13C8.55228 13 9 12.5523 9 12C9 11.4477 8.55228 11 8 11C7.44772 11 7 11.4477 7 12ZM12 13C11.4477 13 11 12.5523 11 12C11 11.4477 11.4477 11 12 11C12.5523 11 13 11.4477 13 12C13 12.5523 12.5523 13 12 13ZM15 12C15 12.5523 15.4477 13 16 13C16.5523 13 17 12.5523 17 12C17 11.4477 16.5523 11 16 11C15.4477 11 15 11.4477 15 12Z" fill="black"/>
</svg>
