<svg width="32" height="24" viewBox="0 0 32 24" fill="none" xmlns="http://www.w3.org/2000/svg">
<path opacity="0.587821" d="M23.9997 6.66699C26.2088 6.66699 27.9997 8.45785 27.9997 10.667C27.9995 12.876 26.2087 14.667 23.9997 14.667C21.7908 14.6668 19.9999 12.8759 19.9997 10.667C19.9997 8.45796 21.7907 6.66717 23.9997 6.66699ZM11.9997 0C14.9451 0 17.3335 2.38764 17.3337 5.33301C17.3337 8.27853 14.9452 10.667 11.9997 10.667C9.05431 10.6668 6.66667 8.27842 6.66667 5.33301C6.66685 2.38775 9.05442 0.000175999 11.9997 0Z" fill="black"/>
<path d="M11.9775 13.3333C18.3612 13.3333 23.6062 16.3908 23.9971 22.933C24.0126 23.1936 23.9967 24.0003 22.9951 24.0003H0.969727C0.635251 23.9999 -0.0271669 23.2785 0.000976562 22.932C0.517924 16.5687 5.68252 13.3334 11.9775 13.3333ZM23.4688 16.0023C28.0104 16.0521 31.7188 18.3469 31.998 23.1996C32.0093 23.395 31.9978 24.0003 31.2744 24.0003H26.1338C26.1338 20.9996 25.1417 18.2304 23.4688 16.0023Z" fill="black"/>
</svg>
