<svg width="24" height="24" viewBox="0 0 24 24" fill="none" xmlns="http://www.w3.org/2000/svg">
<rect opacity="0.01" width="24" height="24" fill="black"/>
<path d="M11.25 11.83L3 8.36V16.09C3.00888 16.7482 3.3991 17.3413 4 17.61L11.19 21H11.25V11.83Z" fill="black"/>
<path d="M12 10.5L20.51 6.93C20.3668 6.77088 20.1934 6.64172 20 6.55L12.8 3.18C12.2936 2.94032 11.7064 2.94032 11.2 3.18L4 6.55C3.80656 6.64172 3.63322 6.77088 3.49 6.93L12 10.5Z" fill="black"/>
<path d="M12.75 11.83V21H12.8L20 17.61C20.5977 17.3428 20.9873 16.7545 21 16.1V8.36L12.75 11.83Z" fill="black"/>
</svg>
