<svg width="28" height="30" viewBox="0 0 28 30" fill="none" xmlns="http://www.w3.org/2000/svg">
<path opacity="0.78" fill-rule="evenodd" clip-rule="evenodd" d="M12.6312 9.00325C12.6512 8.74275 12.8684 8.5416 13.1297 8.5416H13.5475C13.8044 8.5416 14.0195 8.73624 14.045 8.99184L14.6667 15.2083L19.0814 17.731C19.2372 17.82 19.3333 17.9857 19.3333 18.1651V18.5536C19.3333 18.8833 19.0198 19.1228 18.7018 19.036L12.3987 17.317C12.1673 17.2539 12.0133 17.0354 12.0317 16.7963L12.6312 9.00325Z" fill="#202224"/>
<path opacity="0.901274" d="M5.85254 0.384644C5.94785 -0.014957 6.45754 -0.135976 6.72168 0.178589L8.52051 2.32312C10.2036 1.60644 12.0552 1.20789 14 1.20789C21.7319 1.20789 27.9998 7.47606 28 15.2079C28 22.9399 21.732 29.2079 14 29.2079C6.26801 29.2079 0 22.9399 0 15.2079C3.22093e-05 13.8949 0.180533 12.6239 0.518555 11.4188L3.08594 12.1395C2.8086 13.1284 2.66702 14.1574 2.66699 15.2079C2.66699 21.4671 7.74077 26.5419 14 26.5419C20.2592 26.5419 25.333 21.4671 25.333 15.2079C25.3328 8.94882 20.2591 3.87488 14 3.87488C12.7318 3.87488 11.4968 4.08332 10.332 4.48132L12.1328 6.62781C12.3974 6.94308 12.1892 7.42482 11.7783 7.44812L4.7334 7.84753C4.39924 7.86637 4.14112 7.55788 4.21875 7.2323L5.85254 0.384644Z" fill="#202224"/>
</svg>
