<svg width="32" height="32" viewBox="0 0 32 32" fill="none" xmlns="http://www.w3.org/2000/svg">
  <rect width="32" height="32" rx="6" fill="#4880FF"/>
  <path d="M8 22V10H11.5C12.55 10 13.44 10.18 14.17 10.54C14.91 10.89 15.47 11.41 15.85 12.09C16.24 12.76 16.44 13.58 16.44 14.54C16.44 15.51 16.24 16.33 15.85 17C15.47 17.67 14.91 18.19 14.17 18.55C13.44 18.91 12.55 19.09 11.5 19.09H10V22H8ZM10 17.09H11.35C12.12 17.09 12.72 16.89 13.15 16.5C13.59 16.1 13.81 15.46 13.81 14.57C13.81 13.65 13.59 13.01 13.15 12.64C12.72 12.26 12.12 12.07 11.35 12.07H10V17.09Z" fill="white"/>
  <path d="M18 22V10H20.5C21.24 10 21.86 10.1 22.35 10.31C22.84 10.51 23.21 10.81 23.47 11.21C23.72 11.61 23.85 12.1 23.85 12.69C23.85 13.14 23.76 13.53 23.57 13.88C23.39 14.22 23.13 14.5 22.79 14.72C22.45 14.94 22.05 15.09 21.59 15.18V15.28C22.09 15.32 22.54 15.46 22.95 15.69C23.36 15.92 23.68 16.24 23.93 16.65C24.17 17.05 24.29 17.53 24.29 18.1C24.29 18.72 24.15 19.25 23.87 19.68C23.59 20.12 23.19 20.45 22.67 20.68C22.15 20.89 21.52 21 20.79 21H18ZM20 19.15H20.6C21.18 19.15 21.61 19.03 21.89 18.79C22.17 18.55 22.31 18.21 22.31 17.77C22.31 17.33 22.17 17 21.89 16.76C21.61 16.51 21.18 16.39 20.6 16.39H20V19.15ZM20 14.69H20.47C20.97 14.69 21.35 14.59 21.61 14.38C21.86 14.17 21.99 13.88 21.99 13.51C21.99 13.13 21.86 12.84 21.61 12.64C21.35 12.44 20.97 12.34 20.47 12.34H20V14.69Z" fill="white"/>
</svg>
