<svg width="100" height="15" viewBox="0 0 100 15" fill="none" xmlns="http://www.w3.org/2000/svg">
<path d="M7.81715e-05 14.32V0.220006H5.52008C7.12008 0.220006 8.48008 0.500006 9.60008 1.06001C10.7334 1.60667 11.5934 2.40667 12.1801 3.46001C12.7801 4.50001 13.0801 5.76667 13.0801 7.26001C13.0801 8.75334 12.7801 10.0267 12.1801 11.08C11.5934 12.1333 10.7334 12.94 9.60008 13.5C8.48008 14.0467 7.12008 14.32 5.52008 14.32H7.81715e-05ZM3.10008 11.78H5.34008C6.84675 11.78 7.97341 11.4067 8.72008 10.66C9.46675 9.91334 9.84008 8.78001 9.84008 7.26001C9.84008 5.74001 9.46008 4.61334 8.70008 3.88001C7.95341 3.13334 6.83341 2.76001 5.34008 2.76001H3.10008V11.78ZM18.5484 14.54C17.8284 14.54 17.1817 14.4 16.6084 14.12C16.035 13.84 15.5884 13.46 15.2684 12.98C14.9484 12.5 14.7884 11.96 14.7884 11.36C14.7884 10.64 14.975 10.0733 15.3484 9.66001C15.7217 9.23334 16.3284 8.93334 17.1684 8.76001C18.0084 8.57334 19.1217 8.48001 20.5084 8.48001H21.5684V10.04H20.5284C20.0084 10.04 19.5684 10.06 19.2084 10.1C18.8617 10.14 18.575 10.2133 18.3484 10.32C18.1217 10.4133 17.955 10.5333 17.8484 10.68C17.755 10.8267 17.7084 11.0133 17.7084 11.24C17.7084 11.6133 17.835 11.92 18.0884 12.16C18.355 12.4 18.735 12.52 19.2284 12.52C19.615 12.52 19.955 12.4333 20.2484 12.26C20.555 12.0733 20.795 11.8267 20.9684 11.52C21.1417 11.2 21.2284 10.84 21.2284 10.44V8.14001C21.2284 7.55334 21.095 7.14001 20.8284 6.90001C20.5617 6.64667 20.1084 6.52001 19.4684 6.52001C18.935 6.52001 18.3684 6.60667 17.7684 6.78001C17.1817 6.94001 16.595 7.18667 16.0084 7.52001L15.1884 5.50001C15.535 5.26001 15.955 5.05334 16.4484 4.88001C16.955 4.69334 17.4817 4.55334 18.0284 4.46001C18.575 4.35334 19.095 4.30001 19.5884 4.30001C20.615 4.30001 21.455 4.45334 22.1084 4.76001C22.775 5.05334 23.275 5.51334 23.6084 6.14001C23.9417 6.75334 24.1084 7.54667 24.1084 8.52001V14.32H21.2884V12.34H21.4284C21.3484 12.7933 21.175 13.1867 20.9084 13.52C20.655 13.84 20.3284 14.0933 19.9284 14.28C19.5284 14.4533 19.0684 14.54 18.5484 14.54ZM30.1212 14.54C29.5478 14.54 28.9945 14.4933 28.4612 14.4C27.9278 14.3067 27.4412 14.18 27.0012 14.02C26.5612 13.86 26.1745 13.66 25.8412 13.42L26.5612 11.46C26.8945 11.66 27.2545 11.84 27.6412 12C28.0412 12.1467 28.4545 12.26 28.8812 12.34C29.3078 12.42 29.7278 12.46 30.1412 12.46C30.7145 12.46 31.1278 12.3733 31.3812 12.2C31.6478 12.0133 31.7812 11.7733 31.7812 11.48C31.7812 11.2133 31.6945 11.0133 31.5212 10.88C31.3478 10.7467 31.0945 10.6533 30.7612 10.6L28.6612 10.22C27.8345 10.0733 27.1945 9.77334 26.7412 9.32001C26.3012 8.85334 26.0812 8.26001 26.0812 7.54001C26.0812 6.87334 26.2678 6.30001 26.6412 5.82001C27.0145 5.32667 27.5278 4.95334 28.1812 4.70001C28.8478 4.43334 29.6012 4.30001 30.4412 4.30001C30.9212 4.30001 31.3878 4.34001 31.8412 4.42001C32.2945 4.50001 32.7212 4.62001 33.1212 4.78001C33.5345 4.94001 33.9012 5.15334 34.2212 5.42001L33.4612 7.36001C33.2078 7.16001 32.9078 6.98667 32.5612 6.84001C32.2145 6.69334 31.8612 6.58001 31.5012 6.50001C31.1412 6.40667 30.8012 6.36001 30.4812 6.36001C29.8812 6.36001 29.4478 6.46001 29.1812 6.66001C28.9145 6.84667 28.7812 7.08667 28.7812 7.38001C28.7812 7.60667 28.8545 7.80001 29.0012 7.96001C29.1612 8.10667 29.4012 8.20667 29.7212 8.26001L31.8212 8.64001C32.6878 8.78667 33.3478 9.08001 33.8012 9.52001C34.2545 9.94667 34.4812 10.5333 34.4812 11.28C34.4812 11.96 34.3012 12.5467 33.9412 13.04C33.5812 13.52 33.0745 13.8933 32.4212 14.16C31.7678 14.4133 31.0012 14.54 30.1212 14.54ZM36.2049 14.32V0.220006H39.2249V6.34001H38.9449C39.2516 5.68667 39.7049 5.18667 40.3049 4.84001C40.9183 4.48001 41.6116 4.30001 42.3849 4.30001C43.1716 4.30001 43.8183 4.45334 44.3249 4.76001C44.8316 5.05334 45.2116 5.50667 45.4649 6.12001C45.7183 6.72001 45.8449 7.48667 45.8449 8.42001V14.32H42.8249V8.56001C42.8249 8.10667 42.7649 7.74001 42.6449 7.46001C42.5383 7.16667 42.3716 6.96001 42.1449 6.84001C41.9316 6.70667 41.6583 6.64001 41.3249 6.64001C40.8983 6.64001 40.5249 6.73334 40.2049 6.92001C39.8983 7.09334 39.6583 7.34667 39.4849 7.68001C39.3116 8.01334 39.2249 8.40001 39.2249 8.84001V14.32H36.2049Z" fill="#4880FF"/>
<path d="M53.3995 14.54C52.6661 14.54 51.9528 14.4733 51.2595 14.34C50.5795 14.22 49.9461 14.0467 49.3595 13.82C48.7728 13.58 48.2595 13.3 47.8195 12.98L48.7195 10.54C49.1461 10.8333 49.6061 11.0867 50.0995 11.3C50.5928 11.5133 51.1195 11.68 51.6795 11.8C52.2395 11.9067 52.8128 11.96 53.3995 11.96C54.3728 11.96 55.0661 11.8133 55.4795 11.52C55.8928 11.2133 56.0995 10.8333 56.0995 10.38C56.0995 10.1267 56.0328 9.90667 55.8995 9.72001C55.7795 9.53334 55.5728 9.37334 55.2795 9.24001C54.9995 9.09334 54.6128 8.97334 54.1195 8.88001L51.8595 8.40001C50.5795 8.13334 49.6261 7.68001 48.9995 7.04001C48.3861 6.38667 48.0795 5.53334 48.0795 4.48001C48.0795 3.57334 48.3195 2.78667 48.7995 2.12001C49.2928 1.45334 49.9661 0.93334 50.8195 0.560007C51.6861 0.186674 52.6795 6.91414e-06 53.7995 6.91414e-06C54.4528 6.91414e-06 55.0795 0.0666735 55.6795 0.200007C56.2795 0.320007 56.8328 0.500007 57.3395 0.740007C57.8461 0.980007 58.2861 1.26667 58.6595 1.60001L57.7595 3.88001C57.2261 3.45334 56.6261 3.13334 55.9595 2.92001C55.2928 2.69334 54.5661 2.58001 53.7795 2.58001C53.2195 2.58001 52.7395 2.65334 52.3395 2.80001C51.9528 2.94667 51.6528 3.15334 51.4395 3.42001C51.2395 3.68667 51.1395 3.99334 51.1395 4.34001C51.1395 4.72667 51.2795 5.04001 51.5595 5.28001C51.8395 5.52001 52.3261 5.71334 53.0195 5.86001L55.2795 6.34001C56.5861 6.62001 57.5595 7.07334 58.1995 7.70001C58.8395 8.31334 59.1595 9.12667 59.1595 10.14C59.1595 11.02 58.9195 11.7933 58.4395 12.46C57.9728 13.1133 57.3061 13.6267 56.4395 14C55.5861 14.36 54.5728 14.54 53.3995 14.54ZM65.5952 14.54C64.1952 14.54 63.1552 14.2 62.4752 13.52C61.7952 12.84 61.4552 11.84 61.4552 10.52V6.76001H59.5952V4.50001H61.4552V1.62001H64.4752V4.50001H67.3752V6.76001H64.4752V10.4C64.4752 10.96 64.6019 11.38 64.8552 11.66C65.1219 11.94 65.5419 12.08 66.1152 12.08C66.2886 12.08 66.4686 12.06 66.6552 12.02C66.8552 11.98 67.0686 11.9267 67.2952 11.86L67.7352 14.06C67.4552 14.2067 67.1219 14.32 66.7352 14.4C66.3486 14.4933 65.9686 14.54 65.5952 14.54ZM72.1812 14.54C71.4612 14.54 70.8145 14.4 70.2412 14.12C69.6678 13.84 69.2212 13.46 68.9012 12.98C68.5812 12.5 68.4212 11.96 68.4212 11.36C68.4212 10.64 68.6078 10.0733 68.9812 9.66001C69.3545 9.23334 69.9612 8.93334 70.8012 8.76001C71.6412 8.57334 72.7545 8.48001 74.1412 8.48001H75.2012V10.04H74.1612C73.6412 10.04 73.2012 10.06 72.8412 10.1C72.4945 10.14 72.2078 10.2133 71.9812 10.32C71.7545 10.4133 71.5878 10.5333 71.4812 10.68C71.3878 10.8267 71.3412 11.0133 71.3412 11.24C71.3412 11.6133 71.4678 11.92 71.7212 12.16C71.9878 12.4 72.3678 12.52 72.8612 12.52C73.2478 12.52 73.5878 12.4333 73.8812 12.26C74.1878 12.0733 74.4278 11.8267 74.6012 11.52C74.7745 11.2 74.8612 10.84 74.8612 10.44V8.14001C74.8612 7.55334 74.7278 7.14001 74.4612 6.90001C74.1945 6.64667 73.7412 6.52001 73.1012 6.52001C72.5678 6.52001 72.0012 6.60667 71.4012 6.78001C70.8145 6.94001 70.2278 7.18667 69.6412 7.52001L68.8212 5.50001C69.1678 5.26001 69.5878 5.05334 70.0812 4.88001C70.5878 4.69334 71.1145 4.55334 71.6612 4.46001C72.2078 4.35334 72.7278 4.30001 73.2212 4.30001C74.2478 4.30001 75.0878 4.45334 75.7412 4.76001C76.4078 5.05334 76.9078 5.51334 77.2412 6.14001C77.5745 6.75334 77.7412 7.54667 77.7412 8.52001V14.32H74.9212V12.34H75.0612C74.9812 12.7933 74.8078 13.1867 74.5412 13.52C74.2878 13.84 73.9612 14.0933 73.5612 14.28C73.1612 14.4533 72.7012 14.54 72.1812 14.54ZM84.774 14.54C83.7073 14.54 82.774 14.3333 81.974 13.92C81.1873 13.4933 80.5807 12.8933 80.154 12.12C79.7273 11.3467 79.514 10.4333 79.514 9.38001C79.514 8.32667 79.7273 7.42001 80.154 6.66001C80.5807 5.90001 81.1873 5.32001 81.974 4.92001C82.774 4.50667 83.7073 4.30001 84.774 4.30001C85.414 4.30001 86.0473 4.39334 86.674 4.58001C87.314 4.76667 87.834 5.03334 88.234 5.38001L87.394 7.46001C87.074 7.19334 86.7007 6.98667 86.274 6.84001C85.8473 6.68001 85.4473 6.60001 85.074 6.60001C84.2873 6.60001 83.674 6.84667 83.234 7.34001C82.8073 7.82001 82.594 8.50667 82.594 9.40001C82.594 10.28 82.8073 10.9733 83.234 11.48C83.674 11.9733 84.2873 12.22 85.074 12.22C85.4473 12.22 85.8473 12.1467 86.274 12C86.7007 11.8533 87.074 11.64 87.394 11.36L88.234 13.44C87.834 13.7733 87.314 14.04 86.674 14.24C86.034 14.44 85.4007 14.54 84.774 14.54ZM89.5448 14.32V0.220006H92.5648V8.56001H92.6048L96.2248 4.50001H99.8048L95.1448 9.76001V8.62001L100.005 14.32H96.3648L92.6048 10.08H92.5648V14.32H89.5448Z" fill="#202224"/>
</svg>
