<svg width="100" height="15" viewBox="0 0 100 15" fill="none" xmlns="http://www.w3.org/2000/svg">
<path d="M-0.00187495 14.32V0.220006H5.51813C7.11813 0.220006 8.47813 0.500006 9.59812 1.06001C10.7315 1.60667 11.5915 2.40667 12.1781 3.46001C12.7781 4.50001 13.0781 5.76667 13.0781 7.26001C13.0781 8.75334 12.7781 10.0267 12.1781 11.08C11.5915 12.1333 10.7315 12.94 9.59812 13.5C8.47813 14.0467 7.11813 14.32 5.51813 14.32H-0.00187495ZM3.09813 11.78H5.33813C6.84479 11.78 7.97146 11.4067 8.71813 10.66C9.46479 9.91334 9.83813 8.78001 9.83813 7.26001C9.83813 5.74001 9.45813 4.61334 8.69813 3.88001C7.95146 3.13334 6.83146 2.76001 5.33813 2.76001H3.09813V11.78ZM18.5464 14.54C17.8264 14.54 17.1797 14.4 16.6064 14.12C16.0331 13.84 15.5864 13.46 15.2664 12.98C14.9464 12.5 14.7864 11.96 14.7864 11.36C14.7864 10.64 14.9731 10.0733 15.3464 9.66001C15.7197 9.23334 16.3264 8.93334 17.1664 8.76001C18.0064 8.57334 19.1197 8.48001 20.5064 8.48001H21.5664V10.04H20.5264C20.0064 10.04 19.5664 10.06 19.2064 10.1C18.8597 10.14 18.5731 10.2133 18.3464 10.32C18.1197 10.4133 17.9531 10.5333 17.8464 10.68C17.7531 10.8267 17.7064 11.0133 17.7064 11.24C17.7064 11.6133 17.8331 11.92 18.0864 12.16C18.3531 12.4 18.7331 12.52 19.2264 12.52C19.6131 12.52 19.9531 12.4333 20.2464 12.26C20.5531 12.0733 20.7931 11.8267 20.9664 11.52C21.1397 11.2 21.2264 10.84 21.2264 10.44V8.14001C21.2264 7.55334 21.0931 7.14001 20.8264 6.90001C20.5597 6.64667 20.1064 6.52001 19.4664 6.52001C18.9331 6.52001 18.3664 6.60667 17.7664 6.78001C17.1797 6.94001 16.5931 7.18667 16.0064 7.52001L15.1864 5.50001C15.5331 5.26001 15.9531 5.05334 16.4464 4.88001C16.9531 4.69334 17.4797 4.55334 18.0264 4.46001C18.5731 4.35334 19.0931 4.30001 19.5864 4.30001C20.6131 4.30001 21.4531 4.45334 22.1064 4.76001C22.7731 5.05334 23.2731 5.51334 23.6064 6.14001C23.9397 6.75334 24.1064 7.54667 24.1064 8.52001V14.32H21.2864V12.34H21.4264C21.3464 12.7933 21.1731 13.1867 20.9064 13.52C20.6531 13.84 20.3264 14.0933 19.9264 14.28C19.5264 14.4533 19.0664 14.54 18.5464 14.54ZM30.1192 14.54C29.5459 14.54 28.9926 14.4933 28.4592 14.4C27.9259 14.3067 27.4392 14.18 26.9992 14.02C26.5592 13.86 26.1726 13.66 25.8392 13.42L26.5592 11.46C26.8926 11.66 27.2526 11.84 27.6392 12C28.0392 12.1467 28.4526 12.26 28.8792 12.34C29.3059 12.42 29.7259 12.46 30.1392 12.46C30.7126 12.46 31.1259 12.3733 31.3792 12.2C31.6459 12.0133 31.7792 11.7733 31.7792 11.48C31.7792 11.2133 31.6926 11.0133 31.5192 10.88C31.3459 10.7467 31.0926 10.6533 30.7592 10.6L28.6592 10.22C27.8326 10.0733 27.1926 9.77334 26.7392 9.32001C26.2992 8.85334 26.0792 8.26001 26.0792 7.54001C26.0792 6.87334 26.2659 6.30001 26.6392 5.82001C27.0126 5.32667 27.5259 4.95334 28.1792 4.70001C28.8459 4.43334 29.5992 4.30001 30.4392 4.30001C30.9192 4.30001 31.3859 4.34001 31.8392 4.42001C32.2926 4.50001 32.7192 4.62001 33.1192 4.78001C33.5326 4.94001 33.8992 5.15334 34.2192 5.42001L33.4592 7.36001C33.2059 7.16001 32.9059 6.98667 32.5592 6.84001C32.2126 6.69334 31.8592 6.58001 31.4992 6.50001C31.1392 6.40667 30.7992 6.36001 30.4792 6.36001C29.8792 6.36001 29.4459 6.46001 29.1792 6.66001C28.9126 6.84667 28.7792 7.08667 28.7792 7.38001C28.7792 7.60667 28.8526 7.80001 28.9992 7.96001C29.1592 8.10667 29.3992 8.20667 29.7192 8.26001L31.8192 8.64001C32.6859 8.78667 33.3459 9.08001 33.7992 9.52001C34.2526 9.94667 34.4792 10.5333 34.4792 11.28C34.4792 11.96 34.2992 12.5467 33.9392 13.04C33.5792 13.52 33.0726 13.8933 32.4192 14.16C31.7659 14.4133 30.9992 14.54 30.1192 14.54ZM36.203 14.32V0.220006H39.223V6.34001H38.943C39.2496 5.68667 39.703 5.18667 40.303 4.84001C40.9163 4.48001 41.6096 4.30001 42.383 4.30001C43.1696 4.30001 43.8163 4.45334 44.323 4.76001C44.8296 5.05334 45.2096 5.50667 45.463 6.12001C45.7163 6.72001 45.843 7.48667 45.843 8.42001V14.32H42.823V8.56001C42.823 8.10667 42.763 7.74001 42.643 7.46001C42.5363 7.16667 42.3696 6.96001 42.143 6.84001C41.9296 6.70667 41.6563 6.64001 41.323 6.64001C40.8963 6.64001 40.523 6.73334 40.203 6.92001C39.8963 7.09334 39.6563 7.34667 39.483 7.68001C39.3096 8.01334 39.223 8.40001 39.223 8.84001V14.32H36.203Z" fill="#4880FF"/>
<path d="M53.3975 14.54C52.6642 14.54 51.9508 14.4733 51.2575 14.34C50.5775 14.22 49.9442 14.0467 49.3575 13.82C48.7708 13.58 48.2575 13.3 47.8175 12.98L48.7175 10.54C49.1442 10.8333 49.6042 11.0867 50.0975 11.3C50.5908 11.5133 51.1175 11.68 51.6775 11.8C52.2375 11.9067 52.8108 11.96 53.3975 11.96C54.3708 11.96 55.0642 11.8133 55.4775 11.52C55.8908 11.2133 56.0975 10.8333 56.0975 10.38C56.0975 10.1267 56.0308 9.90667 55.8975 9.72001C55.7775 9.53334 55.5708 9.37334 55.2775 9.24001C54.9975 9.09334 54.6108 8.97334 54.1175 8.88001L51.8575 8.40001C50.5775 8.13334 49.6242 7.68001 48.9975 7.04001C48.3842 6.38667 48.0775 5.53334 48.0775 4.48001C48.0775 3.57334 48.3175 2.78667 48.7975 2.12001C49.2908 1.45334 49.9642 0.93334 50.8175 0.560007C51.6842 0.186674 52.6775 6.91414e-06 53.7975 6.91414e-06C54.4508 6.91414e-06 55.0775 0.0666735 55.6775 0.200007C56.2775 0.320007 56.8308 0.500007 57.3375 0.740007C57.8442 0.980007 58.2842 1.26667 58.6575 1.60001L57.7575 3.88001C57.2242 3.45334 56.6242 3.13334 55.9575 2.92001C55.2908 2.69334 54.5642 2.58001 53.7775 2.58001C53.2175 2.58001 52.7375 2.65334 52.3375 2.80001C51.9508 2.94667 51.6508 3.15334 51.4375 3.42001C51.2375 3.68667 51.1375 3.99334 51.1375 4.34001C51.1375 4.72667 51.2775 5.04001 51.5575 5.28001C51.8375 5.52001 52.3242 5.71334 53.0175 5.86001L55.2775 6.34001C56.5842 6.62001 57.5575 7.07334 58.1975 7.70001C58.8375 8.31334 59.1575 9.12667 59.1575 10.14C59.1575 11.02 58.9175 11.7933 58.4375 12.46C57.9708 13.1133 57.3042 13.6267 56.4375 14C55.5842 14.36 54.5708 14.54 53.3975 14.54ZM65.5933 14.54C64.1933 14.54 63.1533 14.2 62.4733 13.52C61.7933 12.84 61.4533 11.84 61.4533 10.52V6.76001H59.5933V4.50001H61.4533V1.62001H64.4733V4.50001H67.3733V6.76001H64.4733V10.4C64.4733 10.96 64.5999 11.38 64.8533 11.66C65.1199 11.94 65.5399 12.08 66.1133 12.08C66.2866 12.08 66.4666 12.06 66.6533 12.02C66.8533 11.98 67.0666 11.9267 67.2933 11.86L67.7333 14.06C67.4533 14.2067 67.1199 14.32 66.7333 14.4C66.3466 14.4933 65.9666 14.54 65.5933 14.54ZM72.1792 14.54C71.4592 14.54 70.8126 14.4 70.2392 14.12C69.6659 13.84 69.2192 13.46 68.8992 12.98C68.5792 12.5 68.4192 11.96 68.4192 11.36C68.4192 10.64 68.6059 10.0733 68.9792 9.66001C69.3526 9.23334 69.9592 8.93334 70.7992 8.76001C71.6392 8.57334 72.7526 8.48001 74.1392 8.48001H75.1992V10.04H74.1592C73.6392 10.04 73.1992 10.06 72.8392 10.1C72.4926 10.14 72.2059 10.2133 71.9792 10.32C71.7526 10.4133 71.5859 10.5333 71.4792 10.68C71.3859 10.8267 71.3392 11.0133 71.3392 11.24C71.3392 11.6133 71.4659 11.92 71.7192 12.16C71.9859 12.4 72.3659 12.52 72.8592 12.52C73.2459 12.52 73.5859 12.4333 73.8792 12.26C74.1859 12.0733 74.4259 11.8267 74.5992 11.52C74.7726 11.2 74.8592 10.84 74.8592 10.44V8.14001C74.8592 7.55334 74.7259 7.14001 74.4592 6.90001C74.1926 6.64667 73.7392 6.52001 73.0992 6.52001C72.5659 6.52001 71.9992 6.60667 71.3992 6.78001C70.8126 6.94001 70.2259 7.18667 69.6392 7.52001L68.8192 5.50001C69.1659 5.26001 69.5859 5.05334 70.0792 4.88001C70.5859 4.69334 71.1126 4.55334 71.6592 4.46001C72.2059 4.35334 72.7259 4.30001 73.2192 4.30001C74.2459 4.30001 75.0859 4.45334 75.7392 4.76001C76.4059 5.05334 76.9059 5.51334 77.2392 6.14001C77.5726 6.75334 77.7392 7.54667 77.7392 8.52001V14.32H74.9192V12.34H75.0592C74.9792 12.7933 74.8059 13.1867 74.5392 13.52C74.2859 13.84 73.9592 14.0933 73.5592 14.28C73.1592 14.4533 72.6992 14.54 72.1792 14.54ZM84.772 14.54C83.7054 14.54 82.772 14.3333 81.972 13.92C81.1854 13.4933 80.5787 12.8933 80.152 12.12C79.7254 11.3467 79.512 10.4333 79.512 9.38001C79.512 8.32667 79.7254 7.42001 80.152 6.66001C80.5787 5.90001 81.1854 5.32001 81.972 4.92001C82.772 4.50667 83.7054 4.30001 84.772 4.30001C85.412 4.30001 86.0454 4.39334 86.672 4.58001C87.312 4.76667 87.832 5.03334 88.232 5.38001L87.392 7.46001C87.072 7.19334 86.6987 6.98667 86.272 6.84001C85.8454 6.68001 85.4454 6.60001 85.072 6.60001C84.2854 6.60001 83.672 6.84667 83.232 7.34001C82.8054 7.82001 82.592 8.50667 82.592 9.40001C82.592 10.28 82.8054 10.9733 83.232 11.48C83.672 11.9733 84.2854 12.22 85.072 12.22C85.4454 12.22 85.8454 12.1467 86.272 12C86.6987 11.8533 87.072 11.64 87.392 11.36L88.232 13.44C87.832 13.7733 87.312 14.04 86.672 14.24C86.032 14.44 85.3987 14.54 84.772 14.54ZM89.5428 14.32V0.220006H92.5628V8.56001H92.6028L96.2228 4.50001H99.8028L95.1428 9.76001V8.62001L100.003 14.32H96.3628L92.6028 10.08H92.5628V14.32H89.5428Z" fill="white"/>
</svg>
